<?xml version="1.0" standalone="yes"?>

<svg version="1.1" viewBox="0.0 0.0 328.0 126.0" fill="none" stroke="none" stroke-linecap="square" stroke-miterlimit="10" xmlns="http://www.w3.org/2000/svg" xmlns:xlink="http://www.w3.org/1999/xlink"><clipPath id="p.0"><path d="m0 0l328.0 0l0 126.0l-328.0 0l0 -126.0z" clip-rule="nonzero"></path></clipPath><g clip-path="url(#p.0)"><path fill="#000000" fill-opacity="0.0" d="m0 0l328.0 0l0 126.0l-328.0 0z" fill-rule="nonzero"></path><path fill="#000000" fill-opacity="0.0" d="m-15.207349 -3.391076l343.2126 0l0 138.83466l-343.2126 0z" fill-rule="nonzero"></path><path fill="#fcab10" d="m44.586445 111.90624l17.375 -81.4375l18.937496 -2.5l-6.0 28.375002l0.75 0q3.8125 0 7.15625 -1.875q3.34375 -1.875 5.84375 -4.875q2.5 -3.0 3.96875 -6.6875q1.46875 -3.6875 1.46875 -7.3125q0 -2.6875 -0.9375 -5.156252q-0.9375 -2.46875 -2.9375 -4.40625q-2.0 -1.9375 -5.21875 -3.09375q-3.21875 -1.15625 -7.78125 -1.15625q-3.75 0 -7.59375 0.84375q-3.84375 0.84375 -7.374996 2.5625q-3.53125 1.71875 -6.65625 4.28125q-3.125 2.562502 -5.40625 6.031252q-2.28125 3.46875 -3.625 7.8125q-1.34375 4.34375 -1.34375 9.59375q0 2.4375 0.28125 3.96875q0.28125 1.53125 0.625 2.4375q0.34375 0.90625 0.625 1.40625q0.28125 0.5 0.28125 0.875q-6.5 0 -10.09375 -2.625q-3.59375 -2.625 -3.59375 -9.125q0 -4.4375 1.75 -8.65625q1.75 -4.21875 4.90625 -8.0q3.15625 -3.781252 7.5 -6.937502q4.34375 -3.15625 9.5 -5.46875q5.15625 -2.3125 10.937496 -3.59375q5.78125 -1.281249 11.84375 -1.281249q7.0625 0 12.1875 1.718749q5.125 1.71875 8.46875 4.53125q3.34375 2.8125 4.96875 6.5q1.625 3.687502 1.625 7.625002q0 2.875 -0.8125 5.75q-0.8125 2.875 -2.4375 5.5q-1.625 2.625 -4.03125 4.96875q-2.40625 2.34375 -5.53125 4.09375q4.125 0.75 7.0 2.71875q2.875 1.96875 4.6875 4.75q1.8125 2.78125 2.625 6.15625q0.8125 3.375 0.8125 7.0q0 3.0625 -0.59375 7.0q-0.59375 3.9375 -1.90625 8.03125q-1.3125 4.09375 -3.4375 8.03125q-2.125 3.9375 -5.25 7.0q-3.125 3.0625 -7.28125 4.9375q-4.15625 1.875 -9.53125 1.875q-2.0625 0 -4.3125 -0.375q-2.25 -0.375 -4.09375 -1.4375q-1.84375 -1.0625 -3.0625 -2.90625q-1.21875 -1.84375 -1.21875 -4.78125q0 -1.625 0.375 -3.4375q0.375 -1.8125 1.25 -4.0q2.4375 2.625 4.4375 3.625q2.0 1.0 4.1875 1.0q3.5 0 5.90625 -2.21875q2.40625 -2.21875 3.90625 -5.625q1.5 -3.40625 2.15625 -7.46875q0.65625 -4.0625 0.65625 -7.6875q0 -3.3125 -0.59375 -6.28125q-0.59375 -2.96875 -2.0 -5.1875q-1.40625 -2.21875 -3.71875 -3.53125q-2.3125 -1.3125 -5.8125 -1.3125q-0.8125 0 -2.4375 0.0625q-1.625 0.0625 -3.4375 0.375l-10.499996 49.0l-18.4375 0zm108.8125 -22.9375q-1.8125 5.1875 -4.03125 9.0q-2.21875 3.8125 -4.625 6.4375q-2.40625 2.625 -4.9375 4.25q-2.53125 1.625 -4.90625 2.5q-2.375 0.875 -4.53125 1.1875q-2.15625 0.3125 -3.84375 0.3125q-2.875 0 -5.375 -0.875q-2.5 -0.875 -4.34375 -2.75q-1.84375 -1.875 -2.90625 -4.75q-1.0625 -2.875 -1.0625 -6.9375q0 -1.75 0.25 -3.84375q0.25 -2.09375 0.75 -4.53125l13.6875 -64.125l18.9375 -2.5625l-14.6875 69.125q-0.3125 1.0625 -0.40625 2.09375q-0.09375 1.03125 -0.09375 2.03125q0 2.6875 1.25 3.71875q1.25 1.03125 3.9375 1.03125q1.875 0 3.65625 -0.84375q1.78125 -0.84375 3.28125 -2.34375q1.5 -1.5 2.6875 -3.59375q1.1875 -2.09375 1.9375 -4.53125l5.375 0zm26.25 -58.0625q0 2.125002 -0.8125 3.968752q-0.8125 1.84375 -2.21875 3.1875q-1.40625 1.34375 -3.25 2.125q-1.84375 0.78125 -3.96875 0.78125q-2.125 0 -3.96875 -0.78125q-1.84375 -0.78125 -3.21875 -2.125q-1.375 -1.34375 -2.15625 -3.1875q-0.78125 -1.84375 -0.78125 -3.968752q0 -2.125 0.78125 -3.96875q0.78125 -1.84375 2.15625 -3.25q1.375 -1.40625 3.21875 -2.21875q1.84375 -0.8125 3.96875 -0.8125q2.125 0 3.96875 0.8125q1.84375 0.8125 3.25 2.21875q1.40625 1.40625 2.21875 3.25q0.8125 1.84375 0.8125 3.96875zm7.9375 58.0625q-1.8125 5.1875 -4.03125 9.0q-2.21875 3.8125 -4.625 6.4375q-2.40625 2.625 -4.9375 4.25q-2.53125 1.625 -4.90625 2.5q-2.375 0.875 -4.53125 1.1875q-2.15625 0.3125 -3.84375 0.3125q-2.875 0 -5.375 -0.875q-2.5 -0.875 -4.34375 -2.75q-1.84375 -1.875 -2.90625 -4.75q-1.0625 -2.875 -1.0625 -6.9375q0 -1.75 0.25 -3.84375q0.25 -2.09375 0.75 -4.53125l8.6875 -41.0625l18.4375 0l-9.1875 43.5q-0.3125 1.0625 -0.40625 2.09375q-0.09375 1.03125 -0.09375 2.03125q0 2.6875 1.25 3.71875q1.25 1.03125 3.9375 1.03125q1.875 0 3.65625 -0.84375q1.78125 -0.84375 3.28125 -2.34375q1.5 -1.5 2.6875 -3.59375q1.1875 -2.09375 1.9375 -4.53125l5.375 0zm64.625 0q-2.6875 7.875 -5.78125 12.5625q-3.09375 4.6875 -6.25 7.15625q-3.15625 2.46875 -6.1875 3.21875q-3.03125 0.75 -5.59375 0.75q-4.25 0 -7.125 -1.21875q-2.875 -1.21875 -4.625 -3.25q-1.75 -2.03125 -2.53125 -4.625q-0.78125 -2.59375 -0.78125 -5.34375q0 -3.25 0.90625 -7.59375q0.90625 -4.34375 1.96875 -8.90625q1.0625 -4.5625 1.96875 -8.8125q0.90625 -4.25 0.90625 -7.3125q0 -6.5625 -4.625 -6.5625q-1.75 0 -3.25 0.9375q-1.5 0.9375 -2.75 2.53125q-1.25 1.59375 -2.25 3.75q-1.0 2.15625 -1.75 4.59375l-8.6875 41.0625l-18.4375 0l13.5625 -64.0l18.4375 0l-1.375 6.625q2.0625 -2.3125 4.09375 -3.71875q2.03125 -1.40625 3.96875 -2.15625q1.9375 -0.75 3.65625 -1.0q1.71875 -0.25 3.21875 -0.25q3.0625 0 5.6875 0.8125q2.625 0.8125 4.53125 2.5625q1.90625 1.75 2.96875 4.5q1.0625 2.75 1.0625 6.5625q0 2.5625 -0.46875 5.53125q-0.46875 2.96875 -1.15625 6.0625q-0.6875 3.09375 -1.46875 6.15625q-0.78125 3.0625 -1.46875 5.875q-0.6875 2.8125 -1.15625 5.21875q-0.46875 2.40625 -0.46875 4.21875q0 2.375 1.09375 3.875q1.09375 1.5 4.03125 1.5q2.0625 0 3.625 -0.8125q1.5625 -0.8125 2.8125 -2.3125q1.25 -1.5 2.28125 -3.59375q1.03125 -2.09375 2.03125 -4.59375l5.375 0zm26.250015 -58.0625q0 2.125002 -0.8125 3.968752q-0.8125 1.84375 -2.21875 3.1875q-1.40625 1.34375 -3.25 2.125q-1.84375 0.78125 -3.96875 0.78125q-2.125 0 -3.96875 -0.78125q-1.84375 -0.78125 -3.21875 -2.125q-1.375 -1.34375 -2.15625 -3.1875q-0.78125 -1.84375 -0.78125 -3.968752q0 -2.125 0.78125 -3.96875q0.78125 -1.84375 2.15625 -3.25q1.375 -1.40625 3.21875 -2.21875q1.84375 -0.8125 3.96875 -0.8125q2.125 0 3.96875 0.8125q1.84375 0.8125 3.25 2.21875q1.40625 1.40625 2.21875 3.25q0.8125 1.84375 0.8125 3.96875zm7.9375 58.0625q-1.8125 5.1875 -4.03125 9.0q-2.21875 3.8125 -4.625 6.4375q-2.40625 2.625 -4.9375 4.25q-2.53125 1.625 -4.90625 2.5q-2.375 0.875 -4.53125 1.1875q-2.15625 0.3125 -3.84375 0.3125q-2.875 0 -5.3750153 -0.875q-2.5 -0.875 -4.34375 -2.75q-1.84375 -1.875 -2.90625 -4.75q-1.0625 -2.875 -1.0625 -6.9375q0 -1.75 0.25 -3.84375q0.25 -2.09375 0.75 -4.53125l8.6875 -41.0625l18.437515 0l-9.1875 43.5q-0.3125 1.0625 -0.40625 2.09375q-0.09375 1.03125 -0.09375 2.03125q0 2.6875 1.25 3.71875q1.25 1.03125 3.9375 1.03125q1.875 0 3.65625 -0.84375q1.78125 -0.84375 3.28125 -2.34375q1.5 -1.5 2.6875 -3.59375q1.1875 -2.09375 1.9375 -4.53125l5.375 0z" fill-rule="nonzero"></path></g></svg>

